<svg xmlns="http://www.w3.org/2000/svg" xmlns:xlink="http://www.w3.org/1999/xlink" xmlns:inkscape="http://www.inkscape.org/namespaces/inkscape" version="1.1" width="1920" height="1080" viewBox="0 0 1920 1080">
<defs>
<clipPath id="clip_1">
<path transform="matrix(1,0,0,-1,0,1080)" d="M0 1080H1920V0H0Z"/>
</clipPath>
</defs>
<g inkscape:groupmode="layer" inkscape:label="Layer 1">
<path transform="matrix(1,0,0,-1,0,1080)" d="M0 0H1920V1080H0Z" fill="#0d4a35"/>
<g clip-path="url(#clip_1)">
<path transform="matrix(1,0,0,-1,170.9253,820.7202)" d="M0 0C0 19.84-20.891 21.68-24.833 21.68H-42.046V-20.498H-21.286C-21.286-20.498 0-19.972 0 0M-42.046 26.279H-20.628C-12.876 26.279-2.627 32.191-2.627 44.805-2.627 58.339-11.431 65.959-23.388 65.959H-42.046ZM15.899-.657C15.899-6.044 11.957-25.622-21.286-25.622H-56.499V57.025C-56.499 63.069-60.835 68.981-68.193 69.901V70.558H-21.286C8.146 70.952 11.694 49.667 11.694 45.462 11.694 32.191 2.891 26.147-4.993 23.388 4.468 21.154 15.899 15.241 15.899-.657" fill="#eae1ce"/>
<path transform="matrix(1,0,0,-1,236.0962,833.0713)" d="M0 0V26.673C-13.271 22.468-27.067 22.468-27.067 4.599-27.067-12.876-11.825-13.796 0 0M13.271 33.111 13.14-13.271H0V-3.548C-6.964-14.322-41.389-25.885-41.389 3.416-41.389 26.279-17.606 23.914 0 30.483V36.922C0 45.068-3.416 49.01-12.088 49.01-16.556 49.01-26.147 49.404-32.717 39.812L-36.396 40.863C-30.615 51.375-20.366 53.083-12.351 53.083 6.57 53.083 13.271 45.331 13.271 33.111" fill="#eae1ce"/>
<path transform="matrix(1,0,0,-1,311.5156,830.8376)" d="M0 0C0-10.774-12.351-17.344-28.25-17.344-37.841-17.344-51.638-12.745-51.638 1.314H-46.382C-46.382-9.723-35.608-12.876-27.987-13.139-18.921-13.139-11.957-9.46-11.957-3.416-11.957 5.124-19.052 6.57-30.877 11.825-38.367 15.11-51.638 20.76-51.638 33.111-51.638 42.703-42.703 50.849-25.753 50.849-21.023 50.849-4.599 49.535-4.599 34.951H-9.198C-9.198 44.937-20.892 47.17-25.622 47.17-33.637 47.17-39.813 44.017-39.813 37.053-39.813 29.958-31.666 27.461-22.206 22.994-8.541 16.556 0 12.088 0 0" fill="#eae1ce"/>
<path transform="matrix(1,0,0,-1,329.9106,753.1841)" d="M0 0C-4.599 0-8.278-3.679-8.278-8.278-8.278-12.745-4.599-16.424 0-16.424 4.467-16.424 8.146-12.745 8.146-8.278 8.146-3.679 4.467 0 0 0M6.438-26.936V-93.158H-6.701V-40.338C-6.701-34.294-11.037-28.512-18.395-27.593V-26.936Z" fill="#eae1ce"/>
<path transform="matrix(1,0,0,-1,402.8335,834.2539)" d="M0 0C-3.022-4.73-10.643-13.928-23.65-13.928-42.965-13.928-54.265 .657-54.265 19.841-54.265 39.024-42.965 53.74-23.65 53.74-9.591 53.74-2.496 44.674 .132 40.075L-3.153 37.316C-17.869 59.259-40.075 50.718-40.075 19.841-40.206-11.168-18.132-19.315-3.416 2.234Z" fill="#eae1ce"/>
<path transform="matrix(1,0,0,-1,514.5171,820.7202)" d="M0 0C0 19.84-20.891 21.68-24.833 21.68H-42.046V-20.498H-21.286C-21.286-20.498 0-19.972 0 0M-42.046 26.279H-20.628C-12.876 26.279-2.627 32.191-2.627 44.805-2.627 58.339-11.431 65.959-23.388 65.959H-42.046ZM15.899-.657C15.899-6.044 11.957-25.622-21.286-25.622H-56.499V57.025C-56.499 63.069-60.835 68.981-68.193 69.901V70.558H-21.286C8.146 70.952 11.694 49.667 11.694 45.462 11.694 32.191 2.891 26.147-4.993 23.388 4.468 21.154 15.899 15.241 15.899-.657" fill="#eae1ce"/>
<path transform="matrix(1,0,0,-1,589.1484,780.64529)" d="M0 0V-7.884C-9.592-7.884-19.972-6.438-23.388-26.279V-65.697H-36.527V-13.271C-36.527-7.358-40.863-1.577-48.221-.657V0H-23.388V-17.081C-19.578-3.022-11.563 0 0 0" fill="#eae1ce"/>
<path transform="matrix(1,0,0,-1,633.1646,833.0713)" d="M0 0V26.673C-13.271 22.468-27.067 22.468-27.067 4.599-27.067-12.876-11.825-13.796 0 0M13.271 33.111 13.14-13.271H0V-3.548C-6.964-14.322-41.389-25.885-41.389 3.416-41.389 26.279-17.606 23.914 0 30.483V36.922C0 45.068-3.416 49.01-12.088 49.01-16.556 49.01-26.147 49.404-32.717 39.812L-36.396 40.863C-30.615 51.375-20.366 53.083-12.351 53.083 6.57 53.083 13.271 45.331 13.271 33.111" fill="#eae1ce"/>
<path transform="matrix(1,0,0,-1,719.4902,802.0625)" d="M0 0-.131-44.28H-13.271V-.788C-13.271 11.694-20.629 17.213-26.279 17.213-34.162 17.213-39.549 13.008-42.966 8.803V-44.28H-56.105V8.541C-56.105 14.453-60.572 20.103-67.799 20.892V21.549H-42.966V14.585C-38.893 18.395-33.374 21.549-26.147 21.549-7.489 21.549 0 10.511 0 0" fill="#eae1ce"/>
<path transform="matrix(1,0,0,-1,780.0615,797.0696)" d="M0 0C-15.241 21.943-35.607 13.402-35.607-17.475-35.739-48.615-15.241-56.63 0-34.819ZM13.14 46.907V-49.272H0V-41.389C-3.81-46.382-10.511-51.112-21.68-51.112-41.914-51.112-50.061-36.659-50.061-17.475-50.061 1.708-41.914 16.424-21.68 16.424-10.774 16.424-3.941 11.431 0 6.57V33.9C0 39.812-4.467 45.331-11.694 46.25V46.907Z" fill="#eae1ce"/>
<path transform="matrix(1,0,0,-1,861.3936,750.1621)" d="M0 0V-96.18H-13.139V-13.402C-13.139-7.752-16.687-2.891-24.833-.657V0Z" fill="#eae1ce"/>
<path transform="matrix(1,0,0,-1,920.6519,797.0696)" d="M0 0C-15.241 21.943-35.607 13.402-35.607-17.475-35.739-48.615-15.241-56.63 0-34.819ZM13.14 46.907V-49.272H0V-41.389C-3.81-46.382-10.511-51.112-21.68-51.112-41.914-51.112-50.061-36.659-50.061-17.475-50.061 1.708-41.914 16.424-21.68 16.424-10.774 16.424-3.941 11.431 0 6.57V33.9C0 39.812-4.467 45.331-11.694 46.25V46.907Z" fill="#eae1ce"/>
<path transform="matrix(1,0,0,-1,957.8359,806.2671)" d="M0 0H28.644C28.381 14.322 26.016 21.154 17.344 21.154 9.066 21.154 1.708 16.556 0 0M-.394-4.993V-8.015C-.394-32.191 21.549-50.586 42.046-26.673L44.279-28.775C43.491-30.483 36.134-41.915 17.213-41.915-3.022-41.915-14.847-27.198-14.847-8.015-14.847 11.168-3.022 25.753 17.213 25.753 41.389 25.753 44.411 7.227 44.411 0V-4.993Z" fill="#eae1ce"/>
<path transform="matrix(1,0,0,-1,1072.6738,802.0625)" d="M0 0-.131-44.28H-13.271V-.788C-13.271 11.694-20.629 17.213-26.278 17.213-34.162 17.213-39.55 13.008-42.966 8.803V-44.28H-56.104V8.541C-56.104 14.453-60.572 20.103-67.799 20.892V21.549H-42.966V14.585C-38.893 18.395-33.374 21.549-26.147 21.549-7.489 21.549 0 10.511 0 0" fill="#eae1ce"/>
<path transform="matrix(1,0,0,-1,1122.209,838.98416)" d="M0 0C-3.153-4.073-7.753-9.329-18.658-9.329-30.615-9.329-31.271-3.022-31.271 3.154V53.477H-42.046V58.47H-31.271V61.755C-31.271 67.799-35.607 73.449-42.966 74.237V74.894H-18.133V58.47H-4.073V53.477H-18.133V5.781C-18.133 1.971-19.053-3.416-14.453-4.599-11.694-5.387-5.913-4.205-2.76 1.84Z" fill="#eae1ce"/>
<path transform="matrix(1,0,0,-1,1145.8584,753.1841)" d="M0 0C-4.599 0-8.277-3.679-8.277-8.278-8.277-12.745-4.599-16.424 0-16.424 4.468-16.424 8.146-12.745 8.146-8.278 8.146-3.679 4.468 0 0 0M6.438-26.936V-93.158H-6.7V-40.338C-6.7-34.294-11.036-28.512-18.395-27.593V-26.936Z" fill="#eae1ce"/>
<path transform="matrix(1,0,0,-1,1207.4824,838.98416)" d="M0 0C-3.153-4.073-7.753-9.329-18.658-9.329-30.615-9.329-31.271-3.022-31.271 3.154V53.477H-42.046V58.47H-31.271V61.755C-31.271 67.799-35.607 73.449-42.966 74.237V74.894H-18.133V58.47H-4.073V53.477H-18.133V5.781C-18.133 1.971-19.053-3.416-14.453-4.599-11.694-5.387-5.913-4.205-2.76 1.84Z" fill="#eae1ce"/>
<path transform="matrix(1,0,0,-1,1284.2158,780.64529)" d="M0 0-36.001-94.472H-41.257L-30.352-65.697-58.075-8.935C-60.046-4.862-62.806-1.445-68.85-.657V0H-57.419C-51.506 0-46.119-3.416-43.491-8.672L-23.913-48.878-5.255 0Z" fill="#eae1ce"/>
<path transform="matrix(1,0,0,-1,144.9434,890.4795)" d="M0 0C-.608 16.33-13.185 17.344-15.315 17.344H-23.226V-16.025H-15.315C-11.258-16.025 .507-15.822 0 0M11.968 0C11.968-21.401-11.563-19.981-23.226-19.981V-53.35H-34.383V10.447C-34.383 15.112-37.73 19.677-43.41 20.386V20.894H-23.226C-11.563 20.894 11.968 21.198 11.968 0" fill="#eae1ce"/>
<path transform="matrix(1,0,0,-1,202.2524,893.1165)" d="M0 0V-6.086C-7.404-6.086-15.417-4.97-18.054-20.285V-50.713H-28.196V-10.244C-28.196-5.68-31.543-1.217-37.223-.507V0H-18.054V-13.185C-15.113-2.333-8.926 0 0 0" fill="#eae1ce"/>
<path transform="matrix(1,0,0,-1,215.7437,912.89456)" d="M0 0H22.111C21.908 11.055 20.082 16.33 13.388 16.33 6.999 16.33 1.318 12.78 0 0M-.304-3.854V-6.187C-.304-24.849 16.634-39.049 32.456-20.589L34.18-22.212C33.572-23.531 27.892-32.354 13.287-32.354-2.333-32.354-11.461-20.995-11.461-6.187-11.461 8.621-2.333 19.879 13.287 19.879 31.949 19.879 34.282 5.579 34.282 0V-3.854Z" fill="#eae1ce"/>
<path transform="matrix(1,0,0,-1,298.0024,931.8608)" d="M0 0C0-8.317-9.534-13.388-21.806-13.388-29.21-13.388-39.86-9.838-39.86 1.014H-35.803C-35.803-7.506-27.486-9.94-21.604-10.143-14.605-10.143-9.229-7.303-9.229-2.637-9.229 3.956-14.707 5.071-23.835 9.128-29.616 11.664-39.86 16.025-39.86 25.559-39.86 32.963-32.963 39.251-19.879 39.251-16.228 39.251-3.55 38.237-3.55 26.979H-7.1C-7.1 34.687-16.126 36.412-19.778 36.412-25.965 36.412-30.732 33.977-30.732 28.602-30.732 23.125-24.443 21.198-17.141 17.749-6.592 12.78 0 9.331 0 0" fill="#eae1ce"/>
<path transform="matrix(1,0,0,-1,315.5513,912.89456)" d="M0 0H22.111C21.908 11.055 20.082 16.33 13.388 16.33 6.999 16.33 1.318 12.78 0 0M-.304-3.854V-6.187C-.304-24.849 16.634-39.049 32.456-20.589L34.18-22.212C33.572-23.531 27.892-32.354 13.287-32.354-2.333-32.354-11.461-20.995-11.461-6.187-11.461 8.621-2.333 19.879 13.287 19.879 31.949 19.879 34.282 5.579 34.282 0V-3.854Z" fill="#eae1ce"/>
<path transform="matrix(1,0,0,-1,404.1997,909.6489)" d="M0 0-.102-34.18H-10.244V-.608C-10.244 9.027-15.924 13.287-20.285 13.287-26.371 13.287-30.529 10.041-33.166 6.796V-34.18H-43.309V6.593C-43.309 11.157-46.757 15.518-52.335 16.127V16.634H-33.166V11.258C-30.022 14.2-25.762 16.634-20.184 16.634-5.781 16.634 0 8.114 0 0" fill="#eae1ce"/>
<path transform="matrix(1,0,0,-1,442.4399,938.1494)" d="M0 0C-2.434-3.144-5.984-7.201-14.402-7.201-23.632-7.201-24.139-2.333-24.139 2.434V41.28H-32.456V45.134H-24.139V47.67C-24.139 52.335-27.486 56.697-33.166 57.305V57.813H-13.997V45.134H-3.144V41.28H-13.997V4.463C-13.997 1.521-14.707-2.637-11.157-3.55-9.027-4.158-4.564-3.246-2.13 1.42Z" fill="#eae1ce"/>
<path transform="matrix(1,0,0,-1,478.4478,933.5852)" d="M0 0V20.589C-10.244 17.344-20.894 17.344-20.894 3.55-20.894-9.94-9.128-10.65 0 0M10.244 25.559 10.143-10.244H0V-2.739C-5.375-11.055-31.949-19.981-31.949 2.637-31.949 20.285-13.591 18.459 0 23.531V28.5C0 34.789-2.637 37.832-9.331 37.832-12.779 37.832-20.184 38.136-25.255 30.732L-28.095 31.543C-23.632 39.657-15.721 40.976-9.534 40.976 5.071 40.976 10.244 34.992 10.244 25.559" fill="#eae1ce"/>
<path transform="matrix(1,0,0,-1,526.9316,938.1494)" d="M0 0C-2.434-3.144-5.984-7.201-14.402-7.201-23.632-7.201-24.139-2.333-24.139 2.434V41.28H-32.456V45.134H-24.139V47.67C-24.139 52.335-27.486 56.697-33.166 57.305V57.813H-13.997V45.134H-3.145V41.28H-13.997V4.463C-13.997 1.521-14.707-2.637-11.157-3.55-9.027-4.158-4.564-3.246-2.13 1.42Z" fill="#eae1ce"/>
<path transform="matrix(1,0,0,-1,545.1895,871.9187)" d="M0 0C-3.55 0-6.39-2.84-6.39-6.39-6.39-9.838-3.55-12.678 0-12.678 3.449-12.678 6.289-9.838 6.289-6.39 6.289-2.84 3.449 0 0 0M4.97-20.792V-71.91H-5.172V-31.137C-5.172-26.472-8.52-22.009-14.199-21.299V-20.792Z" fill="#eae1ce"/>
<path transform="matrix(1,0,0,-1,596.918,919.0813)" d="M0 0C0 16.126-4.26 23.835-13.083 23.835-21.908 23.835-26.269 16.025-26.269 0-26.269-16.634-21.908-23.835-13.083-23.835-4.26-23.835 0-16.634 0 0M11.056 0C11.056-18.155 .203-26.168-13.083-26.168-26.472-26.168-37.324-18.155-37.324 0-37.324 17.546-26.472 26.066-13.083 26.066 .203 26.066 11.056 17.749 11.056 0" fill="#eae1ce"/>
<path transform="matrix(1,0,0,-1,660.3115,909.6489)" d="M0 0-.102-34.18H-10.244V-.608C-10.244 9.027-15.924 13.287-20.285 13.287-26.371 13.287-30.529 10.041-33.166 6.796V-34.18H-43.309V6.593C-43.309 11.157-46.757 15.518-52.335 16.127V16.634H-33.166V11.258C-30.022 14.2-25.762 16.634-20.184 16.634-5.781 16.634 0 8.114 0 0" fill="#eae1ce"/>
</g>
</g>
</svg>
